<mxfile host="65bd71144e">
    <diagram id="R-JgT0WeHQwo02-B71Rg" name="Page-1">
        <mxGraphModel dx="650" dy="647" grid="1" gridSize="10" guides="1" tooltips="1" connect="1" arrows="1" fold="1" page="1" pageScale="1" pageWidth="827" pageHeight="1169" math="0" shadow="0">
            <root>
                <mxCell id="0"/>
                <mxCell id="1" parent="0"/>
                <mxCell id="2" value="NAVBAR (D)" style="rounded=0;whiteSpace=wrap;html=1;" parent="1" vertex="1">
                    <mxGeometry x="10" width="640" height="70" as="geometry"/>
                </mxCell>
                <mxCell id="3" value="HERO 2 ( SARA CHOSE IMG WHICH IS FITTING TO TOPIC OF SUBPAGE)" style="rounded=0;whiteSpace=wrap;html=1;" parent="1" vertex="1">
                    <mxGeometry x="10" y="70" width="640" height="120" as="geometry"/>
                </mxCell>
                <mxCell id="5" value="" style="rounded=0;whiteSpace=wrap;html=1;" parent="1" vertex="1">
                    <mxGeometry x="10" y="190" width="640" height="460" as="geometry"/>
                </mxCell>
                <mxCell id="6" value="ABOUT (SARA WILL DO IT)" style="rounded=0;whiteSpace=wrap;html=1;" parent="1" vertex="1">
                    <mxGeometry x="40" y="220" width="580" height="340" as="geometry"/>
                </mxCell>
                <mxCell id="7" value="FOOTER (D)" style="rounded=0;whiteSpace=wrap;html=1;" parent="1" vertex="1">
                    <mxGeometry x="10" y="590" width="640" height="60" as="geometry"/>
                </mxCell>
            </root>
        </mxGraphModel>
    </diagram>
</mxfile>